<svg width="33" height="25" viewBox="0 0 33 25" fill="none" xmlns="http://www.w3.org/2000/svg">
<path d="M7.1 24.7C5.56667 24.7 4.3 24.3667 3.3 23.7C2.3 22.9667 1.56667 22.0333 1.1 20.9C0.700001 19.7 0.500001 18.4333 0.500001 17.1C0.500001 15.2333 0.866667 13.3667 1.6 11.5C2.33333 9.63333 3.53333 7.76666 5.2 5.9C6.86667 3.96667 9.1 2.06667 11.9 0.199999L12.6 1.2C10.9333 2.4 9.53333 3.56666 8.4 4.7C7.26667 5.76666 6.43333 6.83333 5.9 7.9C5.36667 8.89999 5.1 9.96666 5.1 11.1C5.1 12.1667 5.4 13 6 13.6C6.6 14.2 7.7 14.7 9.3 15.1L12.2 15.8C12.8 17.1333 13 18.5 12.8 19.9C12.6 21.2333 12.0333 22.3667 11.1 23.3C10.1667 24.2333 8.83333 24.7 7.1 24.7ZM27 24.7C25.4667 24.7 24.2 24.3667 23.2 23.7C22.2 22.9667 21.4667 22.0333 21 20.9C20.6 19.7 20.4 18.4333 20.4 17.1C20.4 15.2333 20.7667 13.3667 21.5 11.5C22.2333 9.63333 23.4333 7.76666 25.1 5.9C26.7667 3.96667 29 2.06667 31.8 0.199999L32.5 1.2C30.8333 2.4 29.4333 3.56666 28.3 4.7C27.1667 5.76666 26.3333 6.83333 25.8 7.9C25.2667 8.89999 25 9.96666 25 11.1C25 12.1667 25.3 13 25.9 13.6C26.5 14.2 27.6 14.7 29.2 15.1L32.1 15.8C32.7 17.1333 32.9 18.5 32.7 19.9C32.5 21.2333 31.9333 22.3667 31 23.3C30.0667 24.2333 28.7333 24.7 27 24.7Z" fill="#0D1928"/>
</svg>
