<svg width="33" height="25" viewBox="0 0 33 25" fill="none" xmlns="http://www.w3.org/2000/svg">
<path d="M25.9 0.299999C27.4333 0.299999 28.7 0.633334 29.7 1.3C30.7 2.03334 31.4333 2.96667 31.9 4.1C32.3 5.3 32.5 6.56667 32.5 7.9C32.5 9.76667 32.1333 11.6333 31.4 13.5C30.6667 15.3667 29.4667 17.2333 27.8 19.1C26.1333 21.0333 23.9 22.9333 21.1 24.8L20.4 23.8C22.0667 22.6 23.4667 21.4333 24.6 20.3C25.7333 19.2333 26.5667 18.1667 27.1 17.1C27.6333 16.1 27.9 15.0333 27.9 13.9C27.9 12.8333 27.6 12 27 11.4C26.4 10.8 25.3 10.3 23.7 9.9L20.8 9.2C20.2 7.86667 20 6.5 20.2 5.1C20.4 3.76667 20.9667 2.63333 21.9 1.7C22.8333 0.766665 24.1667 0.299999 25.9 0.299999ZM6 0.299997C7.53334 0.299997 8.8 0.633332 9.8 1.3C10.8 2.03333 11.5333 2.96667 12 4.1C12.4 5.3 12.6 6.56667 12.6 7.9C12.6 9.76667 12.2333 11.6333 11.5 13.5C10.7667 15.3667 9.56667 17.2333 7.9 19.1C6.23333 21.0333 4 22.9333 1.2 24.8L0.500001 23.8C2.16667 22.6 3.56667 21.4333 4.7 20.3C5.83334 19.2333 6.66667 18.1667 7.2 17.1C7.73334 16.1 8 15.0333 8 13.9C8 12.8333 7.7 12 7.1 11.4C6.5 10.8 5.4 10.3 3.8 9.9L0.900003 9.2C0.300003 7.86667 0.100002 6.5 0.300002 5.1C0.500001 3.76666 1.06667 2.63333 2 1.7C2.93334 0.766663 4.26667 0.299997 6 0.299997Z" fill="#0D1928"/>
</svg>
