<svg width="96" height="29" viewBox="0 0 96 29" fill="none" xmlns="http://www.w3.org/2000/svg">
<path d="M96.0041 16.4151C95.8695 16.7072 95.6404 16.8189 95.3225 16.816C94.4147 16.8075 93.5069 16.8132 92.5962 16.8132C92.5046 16.8132 92.4129 16.8132 92.3241 16.7788C92.0864 16.6929 91.9519 16.5239 91.9375 16.2748C91.9347 16.2089 91.9375 16.1402 91.9375 16.0743C91.9375 13.0531 91.9375 10.0347 91.9375 7.01344C91.9375 6.50942 91.9203 6.0054 91.8173 5.50711C91.7743 5.30951 91.7199 5.11764 91.6426 4.92863C91.2388 3.91773 90.2451 3.77741 89.5893 3.98646C89.0251 4.16401 88.6442 4.55348 88.3894 5.07182C88.1173 5.63025 87.9856 6.22877 87.934 6.84162C87.8968 7.25113 87.8825 7.66351 87.8825 8.07589C87.8853 10.7334 87.8825 13.391 87.8825 16.0514C87.8825 16.6356 87.7021 16.8132 87.1093 16.8132C86.2415 16.8132 85.3767 16.8132 84.509 16.8132C84.4087 16.8132 84.3085 16.8132 84.2111 16.7788C83.9935 16.7044 83.8532 16.5612 83.8217 16.3292C83.8074 16.229 83.8074 16.1287 83.8074 16.0285C83.8074 12.7896 83.8074 9.55072 83.8074 6.31182C83.8074 4.6308 83.8016 2.94692 83.7988 1.2659C83.7988 1.21435 83.8016 1.16567 83.7988 1.11412C83.7701 0.710335 84.0708 0.438279 84.4574 0.466917C84.5577 0.475508 84.6579 0.466917 84.761 0.466917C85.4941 0.466917 86.2244 0.466917 86.9575 0.466917C87.0319 0.466917 87.1093 0.464053 87.1837 0.472644C87.473 0.509873 87.6677 0.727518 87.6677 1.02248C87.6677 1.66969 87.6677 2.3169 87.6677 2.9641C87.6677 3.04429 87.6677 3.12447 87.6677 3.23043C87.7765 3.15884 87.7822 3.0672 87.8137 2.9956C88.0572 2.44004 88.3435 1.90738 88.7359 1.44059C89.3802 0.670243 90.2164 0.266455 91.2044 0.174815C91.9118 0.108949 92.6191 0.143314 93.2949 0.389596C94.5579 0.850659 95.2824 1.77279 95.7005 3.03856C95.9525 3.80604 96.0041 12.9328 96.0041 16.4151Z" fill="white"/>
<path d="M34.4687 28.7403C33.3489 28.6114 32.2378 28.4338 31.1353 28.2047C28.1856 27.5948 25.3476 26.6411 22.6299 25.341C19.7948 23.9836 17.1745 22.294 14.769 20.2722C14.4339 19.9915 14.1074 19.7023 13.7752 19.4159C13.6722 19.3271 13.5834 19.2269 13.5347 19.098C13.4058 18.763 13.6521 18.4508 14.0072 18.5052C14.1418 18.5253 14.2621 18.5883 14.3795 18.657C15.4563 19.2842 16.5559 19.8626 17.6785 20.3982C19.1877 21.1198 20.7313 21.7584 22.3092 22.3226C24.5114 23.113 26.7595 23.743 29.0476 24.2213C30.405 24.5048 31.771 24.7339 33.1485 24.9057C34.6348 25.0918 36.1239 25.2121 37.6188 25.2723C38.7385 25.3152 39.8554 25.3238 40.9722 25.2894C42.6447 25.235 44.3085 25.0918 45.9695 24.8656C48.8561 24.4704 51.6884 23.8347 54.4662 22.9555C55.8694 22.5116 57.2469 22.0047 58.6043 21.432C58.8535 21.326 59.1055 21.2401 59.3861 21.3088C59.9675 21.4492 60.1651 22.0563 59.7584 22.4973C59.5121 22.7665 59.1943 22.9498 58.8993 23.1531C56.8403 24.5706 54.6123 25.6675 52.2754 26.5466C50.1305 27.3542 47.9283 27.9499 45.6774 28.3651C44.3228 28.6171 42.9568 28.8004 41.5794 28.8949C36.8513 29.0438 35.176 28.8233 34.4744 28.7431L34.4687 28.7403Z" fill="#FF9A00"/>
<path d="M28.0791 2.92918C28.2938 2.3908 28.5745 1.90396 28.9611 1.48586C29.5682 0.830059 30.3185 0.417679 31.192 0.242991C32.2372 0.0339372 33.2567 0.137032 34.2103 0.626733C35.4017 1.23957 36.0775 2.22757 36.2751 3.55062C36.4068 4.42979 36.3667 5.31182 36.3667 6.19386C36.3667 6.45446 36.361 6.71506 36.361 6.97566C36.361 9.42989 36.361 11.8841 36.361 14.3412C36.361 14.9369 36.3582 15.5354 36.3553 16.1311C36.3553 16.5978 36.1462 16.8069 35.6737 16.8069C34.7573 16.8069 33.8409 16.8069 32.9245 16.8069C32.7956 16.8069 32.6754 16.7897 32.5608 16.721C32.389 16.6179 32.2888 16.4747 32.283 16.2714C32.283 16.2055 32.283 16.1368 32.283 16.0709C32.283 12.8922 32.283 9.71054 32.2859 6.53178C32.2859 6.11081 32.2773 5.68984 32.1885 5.27746C32.0138 4.45843 31.5385 4.06609 30.7108 3.98018C29.7143 3.87708 28.7692 4.55293 28.5516 5.61538C28.4227 6.2454 28.3969 6.88115 28.3969 7.52263C28.3969 10.3291 28.3969 13.1384 28.3969 15.9449C28.3969 16.0108 28.3941 16.0795 28.3969 16.1454C28.4284 16.6007 28.0848 16.8184 27.7268 16.8098C27.1713 16.7954 26.6157 16.8069 26.0601 16.8069C25.6993 16.8069 25.3356 16.8069 24.9748 16.8069C24.5395 16.804 24.3161 16.5893 24.3161 16.1597C24.3161 13.1642 24.3218 10.1716 24.3247 7.17612C24.3247 6.5461 24.3276 5.91321 24.1615 5.2975C24.13 5.18295 24.0985 5.07127 24.0526 4.96244C23.7834 4.30092 23.2909 3.96013 22.5778 3.94295C22.4003 3.94009 22.2256 3.94295 22.0509 3.97732C21.4982 4.08041 21.1058 4.39256 20.8538 4.88799C20.6047 5.37769 20.5216 5.90748 20.4758 6.443C20.4243 7.03866 20.43 7.63432 20.43 8.23284C20.43 10.8417 20.43 13.4477 20.43 16.0566C20.43 16.1225 20.43 16.1912 20.43 16.2571C20.4128 16.5492 20.2181 16.7611 19.9288 16.8012C19.8716 16.8098 19.8114 16.8069 19.7513 16.8069C18.8435 16.8069 17.9357 16.8069 17.025 16.8069C16.9334 16.8069 16.8417 16.8069 16.7501 16.7754C16.521 16.6952 16.3835 16.5434 16.3577 16.3C16.3492 16.2256 16.352 16.1482 16.352 16.0738C16.352 11.1195 16.352 6.16522 16.352 1.21094C16.352 1.17657 16.352 1.14221 16.352 1.11071C16.3577 0.672553 16.5639 0.466363 17.0078 0.463499C17.8755 0.463499 18.7404 0.463499 19.6081 0.463499C20.0262 0.463499 20.2295 0.669689 20.2324 1.08207C20.2353 1.62045 20.2324 2.15884 20.2324 2.69722C20.2324 2.77741 20.2152 2.86045 20.2582 2.95782C20.3555 2.87764 20.367 2.77454 20.4042 2.68863C20.5818 2.27625 20.8023 1.89251 21.0829 1.54313C21.753 0.709781 22.6322 0.271628 23.6832 0.168533C24.1786 0.11985 24.6741 0.131305 25.1638 0.234399C26.189 0.44918 26.9336 1.0477 27.4949 1.90683C27.6781 2.19034 27.8328 2.48817 27.9788 2.79172C28.0017 2.83754 28.0103 2.88909 28.0733 2.92918H28.0791Z" fill="white"/>
<path d="M53.1 14.2016C53.0685 14.1128 53.0169 14.0383 52.9625 13.961C52.8537 13.8121 52.7477 13.6603 52.636 13.5143C52.1005 12.8127 51.8628 12.0223 51.8714 11.1402C51.8857 9.48499 51.8772 7.82688 51.8772 6.16877C51.8772 5.53016 51.8915 4.89154 51.8227 4.25293C51.754 3.60286 51.6137 2.9757 51.2901 2.40295C50.7947 1.52091 50.0358 0.951027 49.1194 0.564422C48.3376 0.235091 44.7149 -0.360568 42.7447 0.51001C41.6708 0.982529 40.2962 2.07648 39.732 3.5284C39.606 3.84914 39.5086 4.18133 39.4542 4.52212C39.3941 4.89441 39.563 5.11778 39.9353 5.18364C39.9611 5.18937 39.984 5.19223 40.0098 5.1951C40.8947 5.28674 41.7824 5.37838 42.6673 5.47575C42.8993 5.50152 43.0568 5.40702 43.1742 5.22374C43.2401 5.12351 43.2716 5.01182 43.2974 4.89727C43.4463 4.25579 43.7928 3.76036 44.3827 3.45681C44.9641 3.15611 45.5826 3.07593 46.2213 3.21911C47.0317 3.39953 47.5042 3.90641 47.6417 4.72544C47.719 5.18364 47.7018 5.64757 47.6989 6.10863C47.6989 6.48092 47.6989 6.48092 47.3324 6.51529C46.3444 6.61265 45.3593 6.70716 44.3799 6.87612C43.6267 7.00499 42.8821 7.17968 42.1748 7.48323C40.7515 8.09321 39.7206 9.0812 39.2223 10.5732C38.8929 11.5583 38.8672 12.5692 39.0533 13.5859C39.3998 15.4903 40.8174 16.7875 42.7303 16.9794C43.3031 17.0367 43.873 17.0252 44.4429 16.9651C45.2476 16.882 46.0036 16.6415 46.688 16.2033C47.2092 15.8711 47.6674 15.4674 48.1085 15.0378C48.1657 14.9834 48.2058 14.8975 48.3118 14.8889C48.4092 15.0321 48.5094 15.1753 48.6039 15.3242C48.9504 15.8568 49.3742 16.3208 49.8611 16.7274C50.1589 16.9766 50.4224 16.9851 50.7259 16.7503C50.8577 16.6472 50.9779 16.5298 51.1068 16.4181C51.7168 15.8883 52.3296 15.3614 52.9396 14.8345C53.1515 14.6512 53.1945 14.465 53.1 14.2044V14.2016ZM47.5271 11.7302C47.3181 12.4862 46.9601 13.1477 46.3072 13.6174C45.8031 13.9782 45.2419 14.1042 44.6347 13.9668C44.0448 13.8322 43.6553 13.4484 43.4606 12.8928C43.1828 12.111 43.2086 11.3207 43.5494 10.5589C43.8443 9.89737 44.3885 9.50504 45.0443 9.25016C45.5826 9.04111 46.1439 8.95233 46.7138 8.90079C46.9658 8.87788 47.2178 8.87215 47.4698 8.86069C47.6932 8.8521 47.6961 8.85497 47.6961 9.07261C47.6961 9.36758 47.6961 9.65968 47.6961 10.0434C47.7018 10.5532 47.6904 11.1517 47.5271 11.7302Z" fill="white"/>
<path d="M14.0902 14.0982C14.0529 14.0324 14.0071 13.9722 13.9613 13.9121C13.8496 13.7546 13.735 13.5971 13.6205 13.4424C13.1193 12.7694 12.9017 12.0106 12.9046 11.1772C12.9103 9.54487 12.9103 7.91539 12.9074 6.28306C12.9074 5.5614 12.9275 4.83687 12.8416 4.1152C12.727 3.16444 12.412 2.30532 11.7304 1.60656C11.2465 1.11113 10.6651 0.76462 10.0236 0.515474C9.26187 0.214781 8.46002 0.0801849 7.64672 0.00286375C7.59517 0.0200462 7.54649 0.0143187 7.49494 0.00286375C7.27443 0.00286375 7.05679 0.00286375 6.83628 0C6.73891 0.011455 6.64155 0.02291 6.54132 0.00572749C6.53845 0.00572749 6.53559 0.00572749 6.53272 0.00572749C5.71083 0.0715937 4.89753 0.189007 4.11286 0.461063C3.08191 0.819031 2.18556 1.37173 1.50112 2.23659C0.968466 2.90957 0.653454 3.68278 0.487356 4.51613C0.418627 4.85405 0.578996 5.08888 0.914055 5.17193C0.97133 5.18624 1.0286 5.1977 1.08874 5.20343C1.85623 5.28648 2.62657 5.37239 3.39692 5.45257C3.90953 5.50698 4.16441 5.61008 4.36773 4.78532C4.49087 4.28416 4.77152 3.88038 5.20395 3.59687C5.8397 3.17876 6.54132 3.06707 7.28016 3.23031C8.0591 3.40213 8.52303 3.8861 8.67194 4.67363C8.76645 5.17479 8.74926 5.67881 8.75213 6.18283C8.75213 6.47493 8.75213 6.48066 8.46289 6.50929C7.55222 6.6038 6.63868 6.68685 5.73374 6.82717C4.96053 6.94745 4.20163 7.125 3.46279 7.3856C1.37225 8.12731 -0.506363 9.88565 0.123661 13.7317C0.430082 15.6046 1.91637 16.8045 3.79498 16.982C4.36773 17.0364 4.93762 17.0221 5.5075 16.962C6.24349 16.8846 6.93651 16.6727 7.57799 16.2947C8.13929 15.9625 8.62899 15.5416 9.09291 15.0891C9.17023 15.0146 9.23324 14.923 9.34206 14.8743C9.44515 15.0232 9.54825 15.1664 9.64275 15.3153C9.99499 15.8652 10.4331 16.3377 10.9343 16.7558C11.1663 16.9505 11.4183 16.9706 11.676 16.8102C11.7476 16.7672 11.8135 16.7128 11.8765 16.6584C12.0998 16.4665 12.3175 16.2689 12.5409 16.0771C13.0105 15.6704 13.4773 15.258 13.9584 14.86C14.2047 14.6567 14.2591 14.4104 14.0902 14.1011V14.0982ZM8.7464 10.0117C8.72635 10.6073 8.71776 11.2058 8.5488 11.7843C8.35693 12.443 8.04478 13.03 7.51499 13.4825C7.1742 13.7746 6.7876 13.9608 6.33513 14.0037C5.38436 14.0896 4.67702 13.6114 4.42501 12.6893C4.2675 12.1108 4.27609 11.5237 4.43933 10.9452C4.66556 10.1319 5.2154 9.6136 5.98002 9.29286C6.54418 9.05517 7.13984 8.95207 7.74409 8.90052C8.0276 8.87761 8.31397 8.87475 8.60035 8.85757C8.70631 8.85184 8.74926 8.88907 8.74926 9.00075C8.74354 9.33581 8.74926 9.67373 8.74926 10.0088L8.7464 10.0117Z" fill="white"/>
<path d="M81.4115 6.6007C81.2139 5.4237 80.8617 4.30111 80.2489 3.26729C79.7191 2.37094 79.0404 1.60632 78.144 1.06507C76.4515 0.0427165 74.6445 -0.106198 72.7773 0.455096C71.3283 0.890385 70.2601 1.83829 69.4726 3.11265C68.6335 4.4758 68.2612 5.98213 68.1352 7.55719C68.0579 8.52513 68.0894 9.48735 68.224 10.4496C68.3844 11.5807 68.6908 12.6661 69.2234 13.6799C69.7991 14.7738 70.5694 15.6931 71.6548 16.3117C73.2556 17.2195 74.9509 17.3541 76.6978 16.8329C78.1612 16.3947 79.2666 15.464 80.0914 14.1982C81.1796 12.5315 81.5719 10.6701 81.5748 8.70841C81.5748 8.00107 81.5232 7.29659 81.4058 6.59783L81.4115 6.6007ZM77.1589 10.2176C77.1188 10.9565 77.0186 11.6896 76.7637 12.3912C76.6348 12.7492 76.4544 13.0785 76.2024 13.3677C75.5323 14.1409 74.0517 14.2841 73.3272 13.1701C73.0064 12.6747 72.8318 12.1249 72.7201 11.555C72.5454 10.6644 72.4795 9.75941 72.4795 8.32181C72.4709 7.67746 72.491 6.96439 72.5712 6.25418C72.6485 5.59266 72.7773 4.94259 73.0924 4.34693C73.3644 3.83718 73.7453 3.43912 74.3352 3.32457C75.054 3.18425 75.7299 3.27016 76.2654 3.83718C76.4744 4.06055 76.6119 4.32974 76.7121 4.61898C76.9412 5.28337 77.0529 5.97067 77.1131 6.66656C77.219 7.84929 77.2247 9.03488 77.1589 10.2176Z" fill="white"/>
<path d="M61.1518 3.71134H60.8569C59.3162 3.71134 57.7783 3.70275 56.2376 3.71707C55.7479 3.7228 55.4673 3.54811 55.4931 2.96104C55.5188 2.33102 55.4959 1.70099 55.4988 1.06811C55.4988 0.612769 55.6907 0.420898 56.1431 0.420898C59.3333 0.420898 62.5207 0.420898 65.7109 0.420898C65.794 0.420898 65.877 0.420898 65.9601 0.443808C66.2121 0.515402 66.3696 0.687227 66.3724 0.950691C66.3782 1.58931 66.3724 2.22792 66.3724 2.8694C66.3724 2.99827 66.3266 3.11568 66.2751 3.23023C66.1691 3.45933 66.0317 3.67125 65.8885 3.87744C64.1989 6.29444 62.5064 8.71144 60.8139 11.1313C60.748 11.2258 60.6822 11.326 60.6077 11.4349C60.7022 11.4893 60.7939 11.4606 60.8798 11.4606C62.0711 11.452 63.2452 11.5809 64.3907 11.9217C64.9807 12.0964 65.5448 12.3341 66.0861 12.6262C66.4841 12.841 66.6674 13.1646 66.6674 13.6084C66.6674 14.333 66.6674 15.0546 66.6674 15.7792C66.6674 15.9281 66.6388 16.0627 66.5471 16.1801C66.3839 16.3949 66.1691 16.4521 65.9257 16.3347C65.5563 16.1543 65.1868 15.9768 64.8002 15.8307C63.8037 15.4584 62.7756 15.2265 61.7131 15.1406C59.7629 14.983 57.8957 15.3009 56.1174 16.12C55.9713 16.1858 55.831 16.2603 55.6878 16.3319C55.3442 16.5008 55.0005 16.3176 54.9461 15.9367C54.9404 15.8966 54.9375 15.8536 54.9375 15.8107C54.9375 14.9859 54.9375 14.1612 54.9461 13.3364C54.9518 12.8438 55.1065 12.4028 55.3928 11.9962C57.2657 9.31569 59.13 6.6295 60.9972 3.94617C61.0401 3.88603 61.0802 3.82016 61.149 3.71134H61.1518Z" fill="white"/>
<path d="M59.3776 19.488C58.5185 19.4852 57.7224 19.5482 56.9291 19.6312C56.4366 19.6828 55.944 19.74 55.4514 19.7945C55.3598 19.803 55.2653 19.8088 55.1737 19.7973C54.9474 19.7687 54.8501 19.5825 54.9388 19.3735C54.9961 19.2389 55.0963 19.1387 55.2166 19.0556C55.7693 18.6633 56.3678 18.3626 57.0036 18.1363C58.0231 17.7727 59.0769 17.5836 60.1566 17.5206C61.1789 17.4634 62.187 17.5149 63.1864 17.7354C63.4642 17.7956 63.7363 17.8843 63.9969 18.0075C64.2202 18.1134 64.3462 18.2853 64.3921 18.5258C64.478 18.9611 64.4665 19.3993 64.4178 19.8317C64.2288 21.5499 63.699 23.1594 62.8227 24.6514C62.3702 25.4246 61.8147 26.1176 61.1302 26.7018C61.0128 26.802 60.8897 26.888 60.7379 26.9166C60.4716 26.9624 60.3083 26.7992 60.3656 26.5357C60.3885 26.4298 60.4344 26.3295 60.4744 26.2264C60.8611 25.2585 61.2333 24.2877 61.5455 23.294C61.7746 22.5637 61.9751 21.8277 62.0495 21.0631C62.0724 20.8254 62.0667 20.5934 62.018 20.3615C61.9665 20.1152 61.8376 19.9319 61.6114 19.8145C61.2992 19.6513 60.9613 19.594 60.6205 19.5482C60.1852 19.4909 59.7499 19.488 59.3719 19.4909L59.3776 19.488Z" fill="#FF9A00"/>
</svg>
