<svg width="912" height="947" viewBox="0 0 912 947" fill="none" xmlns="http://www.w3.org/2000/svg">
<path d="M876.801 88.3424C895.86 87.8641 912 102.896 912 121.962V907C912 929.091 894.091 947 872 947H40C17.9086 947 0 929.091 0 907V76.0798C0 61.3457 8.04571 47.6894 21.3207 41.2966C28.6518 37.7662 36.1808 34.3485 43.932 31.0624C63.957 23.219 85.3042 16.3729 108.044 10.9483C130.276 6.37244 153.376 3.1969 176.951 1.25904C210.63 -0.700035 244.585 -0.268616 278.215 1.83191C331.6 6.04003 383.325 14.2724 433.854 24.1951C529.361 42.9371 621.531 67.3937 721.218 79.6998C771.825 85.9448 824.751 89.6508 876.801 88.3424Z" fill="#FF8100" fill-opacity="0.1"/>
</svg>
