<svg width="124" height="29" viewBox="0 0 124 29" fill="none" xmlns="http://www.w3.org/2000/svg">
<path d="M114.321 22.614C114.272 22.6204 114.221 22.6301 114.172 22.6301C111.957 22.6301 109.746 22.6301 107.531 22.6301C107.495 22.6301 107.457 22.6237 107.421 22.6204C107.373 22.5527 107.386 22.4786 107.399 22.4044C107.611 21.2663 107.795 20.125 108.014 18.9869C107.998 18.7161 108.101 18.4646 108.14 18.2002C108.211 17.736 108.298 17.2717 108.405 16.8139C108.414 16.7591 108.459 16.6849 108.343 16.6946C108.327 16.6946 108.311 16.6946 108.295 16.6946C108.234 16.6785 108.169 16.6785 108.108 16.6946C108.092 16.6946 108.072 16.6946 108.056 16.6946C107.985 16.6752 107.911 16.6946 107.84 16.701C107.818 16.701 107.798 16.701 107.776 16.6914C106.489 16.6849 105.206 16.6849 103.92 16.6914C103.301 16.7107 102.685 16.6462 102.066 16.643C101.947 16.6043 101.821 16.6108 101.698 16.6172C101.563 16.6172 101.428 16.6237 101.295 16.6011C101.118 16.5527 100.941 16.5785 100.763 16.5785C100.57 16.5785 100.377 16.5914 100.186 16.5656C100.09 16.5334 99.9865 16.5334 99.8865 16.5431C99.3481 16.5624 98.8097 16.5173 98.2712 16.4915C98.0456 16.4367 97.8199 16.4721 97.591 16.4657C97.4685 16.4689 97.3427 16.4721 97.2202 16.4528C97.1235 16.4205 97.0268 16.4238 96.9268 16.4302C96.6657 16.4238 96.4045 16.4463 96.1433 16.4173C96.066 16.3948 95.9918 16.3819 95.9112 16.3948C95.6146 16.3883 95.3148 16.4109 95.0181 16.3819C94.9118 16.3464 94.8021 16.3496 94.6925 16.3561C94.5926 16.3561 94.4926 16.3561 94.3927 16.3399C94.1702 16.2916 93.9478 16.3238 93.7221 16.3174C93.5415 16.3174 93.361 16.3303 93.1804 16.3045C93.0869 16.2755 92.987 16.2722 92.8903 16.2787C92.7581 16.2787 92.6291 16.2851 92.5001 16.2722C92.4421 16.2658 92.3583 16.2658 92.368 16.1787C92.3744 16.1046 92.4486 16.1143 92.5034 16.1143C92.9676 16.0981 93.4319 16.0401 93.8994 16.0562C94.0058 16.0627 94.1122 16.0691 94.2154 16.0369C94.2992 16.0208 94.3862 16.0208 94.4733 16.0208C94.6022 16.0208 94.728 16.0369 94.8537 15.9982C94.973 15.9756 95.0923 15.9821 95.2116 15.9821C95.2986 15.9917 95.3857 15.9821 95.4695 15.9563C95.8209 15.9498 96.1691 15.9047 96.5206 15.9047C96.6431 15.9111 96.7656 15.9208 96.8849 15.8821C97.2589 15.8692 97.6296 15.8144 98.0069 15.8305C98.0842 15.8402 98.1584 15.8338 98.2326 15.8112C98.3647 15.7886 98.4937 15.7983 98.6259 15.7951C98.7549 15.7951 98.887 15.8144 99.0128 15.7725C99.5351 15.7338 100.057 15.708 100.58 15.6822C101.16 15.6532 101.737 15.6306 102.314 15.5791C102.527 15.5597 102.74 15.5855 102.949 15.5629C103.053 15.55 103.211 15.5984 103.23 15.4243C103.256 15.1857 103.136 14.9987 102.949 14.9697C102.437 14.8923 101.924 14.8214 101.411 14.7472C100.867 14.6699 100.325 14.5925 99.7801 14.5151C99.7672 14.5151 99.7543 14.5151 99.7446 14.5087C99.6705 14.4861 99.5448 14.4958 99.5448 14.4119C99.5448 14.312 99.6673 14.3055 99.7511 14.3023C100.467 14.2733 101.179 14.1863 101.895 14.1411C102.188 14.125 102.479 14.0992 102.772 14.0702C102.885 14.0605 102.936 14.0186 102.891 13.9058C102.859 13.8123 102.833 13.7155 102.814 13.6156C102.775 13.4189 102.666 13.3254 102.459 13.2964C101.747 13.2029 101.038 13.0901 100.328 12.9837C99.3513 12.8386 98.3776 12.6967 97.404 12.5355C97.3105 12.5194 97.1493 12.5226 97.1525 12.4291C97.1525 12.3066 97.3169 12.3324 97.4136 12.3195C98.6775 12.1712 99.9413 12.0358 101.208 11.8972C101.885 11.823 102.562 11.7618 103.236 11.6844C103.349 11.6715 103.462 11.6715 103.572 11.6715C105.393 11.6715 107.215 11.6715 109.04 11.6715C109.365 11.6715 109.365 11.6715 109.423 11.3555C109.61 10.3689 109.781 9.37916 110 8.40226C110.391 6.81602 111.026 5.34261 112.019 4.03364C112.786 3.04384 113.698 2.21203 114.772 1.56399C116.017 0.812783 117.367 0.358188 118.805 0.155071C119.582 0.0454528 120.366 -0.0158046 121.153 0.00353982C121.617 0.0164361 122.068 0.0776936 122.503 0.255018C122.932 0.429118 123.232 0.728957 123.4 1.15454C123.693 1.88963 123.845 2.65696 123.961 3.43718C123.993 3.6403 124.016 3.84342 123.983 4.04976C123.925 4.56561 123.571 4.78807 123.126 4.92026C122.703 5.046 122.262 5.02665 121.826 5.05889C121.256 5.10081 120.679 5.04277 120.111 5.16529C118.979 5.41032 118.122 6.02289 117.538 7.02236C117.193 7.60914 116.984 8.24428 116.839 8.90844C116.674 9.78217 116.523 10.6559 116.362 11.5296C116.352 11.5844 116.345 11.6392 116.326 11.694C116.294 11.8262 116.252 11.9584 116.229 12.0938C116.2 12.2679 116.216 12.2937 116.387 12.2969C116.668 12.3034 116.948 12.3098 117.226 12.3066C118.17 12.3002 119.118 12.3163 120.063 12.3002C120.15 12.3002 120.24 12.3002 120.301 12.3808C120.395 12.5484 120.43 12.729 120.437 12.916C120.446 13.219 120.463 13.5221 120.405 13.8219C120.298 14.4506 120.185 15.0761 119.873 15.6435C119.64 16.0691 119.331 16.4205 118.863 16.5979C118.699 16.6623 118.528 16.6914 118.351 16.6881C117.464 16.6849 116.578 16.6881 115.694 16.6881C115.414 16.6881 115.407 16.6914 115.352 16.9654C115.22 17.6263 115.12 18.2905 114.995 18.9547C114.788 20.1186 114.569 21.2792 114.376 22.4463C114.366 22.5076 114.366 22.5721 114.311 22.614H114.321Z" fill="#F9E023"/>
<path d="M41.8305 11.5133C41.5081 10.6041 41.0213 9.80132 40.2056 9.24678C39.2029 8.5665 38.0842 8.4859 36.9364 8.71159C35.4565 9.00498 34.2475 9.79165 33.2126 10.8653C33.1126 10.9684 33.0159 11.0716 32.8837 11.1425C32.8837 10.675 32.8837 10.2205 32.8837 9.76586C32.8837 9.26935 32.5194 8.90825 32.0229 8.90503C31.5619 8.90181 31.1008 8.90503 30.6365 8.90503C30.14 8.90503 29.7854 9.23066 29.7112 9.72717C29.621 10.3559 29.5178 10.9813 29.4211 11.61C29.1567 13.2898 28.8891 14.9663 28.6215 16.646C28.3539 18.3355 28.0895 20.0281 27.8219 21.7175C27.5414 23.4811 27.2577 25.2479 26.9804 27.0114C26.8934 27.5628 27.3028 28.0367 27.8638 28.0496C28.0766 28.0528 28.2894 28.0496 28.499 28.0528C29.0148 28.0593 29.5339 28.0657 30.0498 28.0238C30.4721 27.9883 30.73 27.7917 30.8493 27.3854C30.8751 27.3016 30.8912 27.2146 30.9074 27.1307C31.1556 25.7379 31.362 24.3419 31.5103 22.9362C31.5264 22.7879 31.5651 22.7589 31.7134 22.7847C32.9482 23.0071 34.1895 23.0458 35.4372 22.8588C36.6108 22.6847 37.7069 22.3011 38.7064 21.653C39.7929 20.9437 40.5409 19.9443 41.118 18.8094C41.7822 17.5101 42.1239 16.1205 42.1949 14.6665C42.2464 13.5961 42.1949 12.5353 41.8305 11.5133ZM38.1809 14.7374C38.1809 16.0238 37.8714 17.2199 37.1395 18.2968C36.5495 19.164 35.7177 19.5896 34.6957 19.6863C33.9058 19.7637 33.132 19.6444 32.3647 19.4574C32.2067 19.4187 32.1422 19.3252 32.168 19.1737C32.3808 17.9808 32.4968 16.7686 32.7677 15.5853C32.7773 15.5434 32.7902 15.5015 32.8128 15.4628C33.3964 14.5149 34.025 13.6057 34.8762 12.8706C35.2566 12.5418 35.6564 12.2258 36.14 12.0582C36.7429 11.8486 37.3201 12.055 37.6683 12.5902C38.068 13.2027 38.1809 13.8895 38.1809 14.602V14.7342V14.7374Z" fill="white"/>
<path d="M47.7687 3.77823C48.1233 3.77823 48.4812 3.77823 48.8358 3.77823C49.3775 3.77823 49.8095 4.28441 49.7257 4.8196C49.3968 6.87979 49.0647 8.93675 48.7359 10.9969C48.5618 12.0899 48.3877 13.1861 48.2136 14.279C48.2039 14.3435 48.1717 14.4241 48.2974 14.4048C48.9487 14.3081 49.5967 14.1952 50.1222 13.76C50.4446 13.4924 50.6897 13.1474 50.9411 12.8153C51.5473 12.019 52.0502 11.1614 52.4661 10.2522C52.5758 10.0104 52.6467 9.74922 52.7499 9.50096C52.9111 9.1044 53.1851 8.89161 53.6397 8.90129C54.3748 8.91741 55.1131 8.90129 55.8482 8.90773C56.4511 8.91418 56.8509 9.46228 56.6832 10.0426C56.406 10.9873 55.9578 11.8513 55.4291 12.6767C54.752 13.7406 54.0298 14.7723 53.0916 15.6267C52.8143 15.8782 52.8047 16.0716 52.924 16.394C53.4172 17.7385 53.9686 19.0604 54.4747 20.3983C54.6166 20.7691 54.7971 21.1302 54.8906 21.5171C55.0293 22.0781 54.7327 22.5198 54.1652 22.6262C53.9589 22.6649 53.7558 22.6649 53.5494 22.652C53.1142 22.6197 52.6789 22.6294 52.2437 22.6488C52.1018 22.6552 51.9567 22.6617 51.8149 22.6584C51.3442 22.6488 51.0314 22.4424 50.8444 21.9878C50.2415 20.5338 49.7063 19.0539 49.0841 17.6095C49.026 17.4709 48.9583 17.4225 48.8133 17.4386C48.5521 17.4644 48.291 17.4644 48.0298 17.4386C47.7687 17.4161 47.7203 17.4483 47.6752 17.7159C47.5978 18.1705 47.5333 18.6251 47.4591 19.0797C47.3141 19.9953 47.1593 20.911 47.0271 21.8298C46.9594 22.2941 46.5757 22.6488 46.0954 22.6423C45.3957 22.6326 44.6961 22.6552 43.9965 22.6423C43.4097 22.6326 43.0164 22.1845 43.1066 21.6009C43.3098 20.2597 43.5258 18.9185 43.7386 17.5773C43.9804 16.0523 44.2254 14.5273 44.4672 13.0023C44.7122 11.4515 44.9573 9.90398 45.2055 8.35319C45.4022 7.11837 45.5988 5.88033 45.7891 4.6455C45.8536 4.23282 46.047 3.93943 46.45 3.8008C46.5338 3.77178 46.6209 3.76855 46.7079 3.76855C47.0626 3.76855 47.4205 3.76855 47.7751 3.76855L47.7687 3.77823Z" fill="white"/>
<path d="M70.4523 9.17294C69.0917 8.92469 67.7247 8.70223 66.3416 8.64097C65.1745 8.58616 64.0106 8.59906 62.866 8.87955C60.7156 9.40508 59.0906 10.6141 58.0363 12.5743C57.2174 14.0993 56.8499 15.7339 56.8596 17.4588C56.866 18.4486 56.9756 19.4223 57.3593 20.3476C57.743 21.2858 58.3168 22.0725 59.2422 22.5367C60.2094 23.0268 61.2379 23.0526 62.2728 22.8334C63.4689 22.5787 64.4684 21.9403 65.3808 21.1536C65.6516 20.9183 65.9128 20.67 66.1771 20.4282C66.2352 20.4959 66.2191 20.5701 66.2158 20.6345C66.2029 20.9698 66.1707 21.3051 66.1675 21.6437C66.161 22.2982 66.5286 22.656 67.1831 22.656C67.5861 22.656 67.9891 22.656 68.3953 22.656C68.937 22.656 69.2529 22.3884 69.3464 21.85C69.4044 21.4986 69.4593 21.1504 69.5141 20.799C69.8075 18.9419 70.0976 17.0848 70.391 15.2278C70.6554 13.548 70.923 11.8715 71.1841 10.1918C71.2583 9.71459 70.9294 9.25999 70.4555 9.17294H70.4523ZM66.8897 12.3616C66.7575 13.5061 66.5382 14.6345 66.3706 15.7759C66.3319 16.0306 66.1771 16.2305 66.045 16.44C65.4098 17.4459 64.6586 18.3551 63.7075 19.0838C63.4689 19.2675 63.2078 19.4094 62.9176 19.4964C62.2341 19.6996 61.6667 19.4706 61.3185 18.8484C61.0573 18.3841 60.9541 17.8747 60.9026 17.3492C60.8897 17.2073 60.8832 17.0623 60.8735 16.8817C60.8574 15.5824 61.2024 14.3476 61.9504 13.2353C62.4759 12.4518 63.2271 12.0166 64.1621 11.8973C65.0326 11.7844 65.887 11.8876 66.7317 12.1133C66.8864 12.1552 66.909 12.2197 66.8929 12.3616H66.8897Z" fill="white"/>
<path d="M8.59138 3.77832C10.2518 3.77832 11.9122 3.77832 13.5726 3.77832C14.198 3.77832 14.6075 4.19745 14.5301 4.81647C14.4592 5.40326 14.4108 5.99326 14.2561 6.56715C14.2077 6.75092 14.1142 6.91212 13.9691 7.04109C13.8434 7.14748 13.708 7.21841 13.5339 7.22486C11.5092 7.28612 9.48445 7.23776 7.45973 7.25065C7.15989 7.25065 6.86327 7.2571 6.56343 7.25065C6.45704 7.25065 6.4119 7.27 6.39578 7.38929C6.18944 8.80466 5.97343 10.2233 5.76386 11.6386C5.70583 12.0191 5.7155 12.0223 6.09272 12.0191C7.62738 12.0191 9.16526 12.0158 10.6999 12.0126C10.8611 12.0126 11.0256 11.9997 11.1868 12.0126C11.6897 12.0545 12.0476 12.4575 12.0153 12.9573C11.9767 13.5054 11.8767 14.0438 11.7703 14.5822C11.6897 14.9981 11.3222 15.2625 10.903 15.2625C9.36193 15.2625 7.82082 15.2625 6.27971 15.2689C5.95086 15.2689 5.61878 15.2915 5.28992 15.2979C5.18675 15.2979 5.14484 15.3237 5.12549 15.4398C4.79341 17.5806 4.45811 19.7214 4.11958 21.8622C4.04865 22.3039 3.69723 22.6231 3.24263 22.6263C2.44306 22.636 1.64671 22.6327 0.847143 22.6263C0.334515 22.6198 -0.065271 22.1491 0.00888283 21.6429C0.131398 20.8047 0.266809 19.9696 0.398996 19.1314C0.63113 17.6548 0.863263 16.1781 1.0954 14.7015C1.32431 13.2571 1.55644 11.8127 1.78535 10.3651C2.04328 8.75307 2.29798 7.14426 2.5559 5.53222C2.61071 5.19369 2.65585 4.85516 2.71711 4.51663C2.79771 4.07494 3.16848 3.77832 3.61985 3.77832C5.28025 3.77832 6.93743 3.77832 8.59783 3.77832H8.59138Z" fill="white"/>
<path d="M89.3553 12.0029C89.0491 12.0029 88.746 12.0029 88.4397 12.0029C88.3333 12.0029 88.2914 12.0319 88.2753 12.1448C88.0174 13.8245 87.7562 15.5043 87.4918 17.1808C87.4241 17.6128 87.35 18.0384 87.379 18.4769C87.4209 19.083 87.6917 19.3699 88.2914 19.4376C88.5106 19.4634 88.7299 19.4731 88.9459 19.4537C89.4779 19.4086 89.868 19.9503 89.8293 20.3823C89.7874 20.8659 89.739 21.3495 89.652 21.8267C89.5939 22.1362 89.4231 22.3651 89.1426 22.4683C87.7884 22.9648 86.415 23.1614 85.019 22.6359C83.8905 22.2136 83.3844 21.3398 83.2393 20.1985C83.1458 19.4537 83.2586 18.7219 83.3682 17.9868C83.6519 16.0717 84.0066 14.1663 84.2387 12.2447C84.2452 12.1963 84.242 12.1448 84.2516 12.0964C84.2742 11.9803 84.2194 11.961 84.1194 11.9674C83.984 11.9739 83.8454 11.9771 83.71 11.9674C83.1651 11.9287 82.8234 11.5548 82.8717 11.0067C82.9136 10.5424 82.9781 10.0781 83.091 9.62353C83.2135 9.13025 83.4875 8.91746 83.9969 8.90456C84.2387 8.89812 84.4838 8.89812 84.7256 8.90456C84.8449 8.90456 84.8964 8.86265 84.9319 8.74658C85.1834 7.88253 85.4478 7.01848 85.7089 6.15443C85.8347 5.73207 86.1603 5.48704 86.5923 5.49027C87.1662 5.49027 87.7401 5.49349 88.314 5.50316C88.7782 5.50961 89.1587 5.88683 89.149 6.35432C89.1426 6.77345 89.0426 7.17968 88.9814 7.59236C88.9265 7.97281 88.8717 8.35647 88.8137 8.73691C88.7944 8.85943 88.8201 8.91101 88.962 8.90779C89.4682 8.89812 89.9711 8.90134 90.4773 8.90779C90.9932 8.91424 91.4059 9.38818 91.3253 9.89758C91.2543 10.3586 91.1705 10.8164 91.0738 11.2743C90.99 11.674 90.6482 11.9481 90.2323 11.9739C90.084 11.9836 89.9325 11.9868 89.7842 11.99C89.6423 11.99 89.4972 11.99 89.3553 11.99V12.0061V12.0029Z" fill="white"/>
<path d="M18.588 3.77832C18.9071 3.77832 19.2231 3.77832 19.5423 3.77832C20.1903 3.77832 20.5901 4.22647 20.5031 4.86806C20.4257 5.44194 20.329 6.01261 20.2387 6.58327C19.9808 8.21143 19.7261 9.84281 19.4681 11.471C19.236 12.9283 19.0006 14.3823 18.775 15.8396C18.646 16.6714 18.4848 17.4935 18.4171 18.335C18.401 18.5478 18.4203 18.7574 18.4493 18.9669C18.4945 19.2829 18.6718 19.4699 18.962 19.5699C19.1328 19.6279 19.3037 19.6827 19.4714 19.7504C19.7325 19.8536 19.8937 20.0373 19.9356 20.3307C20.0001 20.766 19.9098 21.1883 19.8647 21.6139C19.8518 21.73 19.8486 21.8525 19.8196 21.9653C19.7551 22.2394 19.5713 22.4328 19.323 22.5392C18.0108 23.0938 16.7019 23.1389 15.4413 22.4135C14.6223 21.9395 14.2838 21.1625 14.2322 20.2437C14.1968 19.5699 14.3354 18.9186 14.4353 18.2609C14.6868 16.6198 14.9448 14.9755 15.2027 13.3345C15.4477 11.774 15.6927 10.2104 15.9378 8.6499C16.1538 7.27967 16.3698 5.90944 16.589 4.53598C16.6535 4.1233 16.9501 3.84925 17.366 3.80411C17.4337 3.79766 17.5014 3.78799 17.5724 3.78799C17.9077 3.78799 18.2462 3.78799 18.5815 3.78799C18.5815 3.78799 18.5815 3.78477 18.5815 3.78154L18.588 3.77832Z" fill="white"/>
<path d="M76.7525 11.604C77.0137 11.4363 77.1878 11.2106 77.3844 11.0043C78.3807 9.95648 79.5317 9.15691 80.9309 8.73778C81.4919 8.57013 82.1303 9.07308 82.0626 9.65342C81.9691 10.4498 81.7885 11.2364 81.6338 12.0231C81.5629 12.381 81.3114 12.6228 80.9503 12.6873C79.3673 12.9742 78.155 13.8608 77.0814 15.0054C76.7267 15.3826 76.6203 15.8211 76.5494 16.3047C76.2721 18.1585 75.982 20.0092 75.6918 21.8598C75.6112 22.3756 75.2695 22.6561 74.7536 22.6593C74.0798 22.6593 73.4092 22.6368 72.7353 22.6658C72.1066 22.6916 71.6617 22.1499 71.7649 21.5438C71.9809 20.2735 72.1743 19 72.3742 17.7265C72.658 15.9371 72.9417 14.1478 73.2254 12.3584C73.3673 11.4621 73.5027 10.5626 73.6445 9.66631C73.7122 9.22784 74.0475 8.92478 74.4892 8.9151C74.989 8.90543 75.4887 8.90543 75.9852 8.90866C76.443 8.9151 76.8202 9.29232 76.8138 9.74692C76.8041 10.3563 76.7751 10.9656 76.7525 11.604Z" fill="white"/>
<path d="M23.4507 22.6397C23.0896 22.6397 22.7318 22.6462 22.3707 22.6397C21.8161 22.63 21.4196 22.1722 21.5034 21.6144C21.613 20.8632 21.7452 20.1152 21.8645 19.364C22.1192 17.7584 22.3707 16.1561 22.6254 14.5505C22.8575 13.0932 23.0896 11.6359 23.3185 10.1786C23.3411 10.0432 23.3508 9.90782 23.3766 9.77241C23.483 9.17918 23.7409 8.95027 24.3406 8.91158C25.037 8.86644 25.7366 8.93415 26.4362 8.90191C26.5942 8.89546 26.7425 8.95027 26.8779 9.03087C27.2132 9.23076 27.3228 9.54027 27.2809 9.90782C27.181 10.8235 27.0101 11.7294 26.8682 12.6386C26.6393 14.1023 26.404 15.5629 26.1751 17.0266C25.9558 18.4097 25.7398 19.7928 25.5206 21.176C25.4851 21.392 25.4529 21.6048 25.4206 21.8208C25.3336 22.3689 25.0047 22.6494 24.4534 22.6494C24.1213 22.6494 23.786 22.6494 23.4539 22.6494V22.6365L23.4507 22.6397Z" fill="white"/>
<path d="M25.538 7.72491C25.3091 7.70879 25.077 7.70879 24.8545 7.64108C24.2419 7.45086 23.8454 7.06397 23.768 6.40626C23.6519 5.42614 23.9195 4.59433 24.732 3.98498C25.0802 3.72383 25.4929 3.66257 25.912 3.62066C26.3698 3.57552 26.8212 3.56907 27.2629 3.70771C27.8851 3.90438 28.2237 4.33318 28.2785 4.97799C28.3236 5.52286 28.2688 6.05483 28.0044 6.55457C27.624 7.27998 26.9921 7.60562 26.2118 7.69589C25.9894 7.72168 25.7637 7.74103 25.5412 7.72491H25.538Z" fill="white"/>
</svg>
