<svg width="967" height="653" viewBox="0 0 967 653" fill="none" xmlns="http://www.w3.org/2000/svg">
<path fill-rule="evenodd" clip-rule="evenodd" d="M965.956 67.6358C966.05 67.6417 966.143 67.6475 966.236 67.6534L965.955 67.7094C965.956 67.685 965.957 67.6605 965.956 67.6358ZM965.956 67.6358C965.899 64.099 949.176 57.6052 926.191 50.0665C874.28 33.0976 821.516 20.6544 767.731 11.899C764.982 11.4443 761.818 10.9293 758.136 10.33C750.076 9.01794 739.531 7.30147 725.411 4.92793C618.741 -12.4715 532.977 22.305 471.597 112.05C451.452 141.456 430.996 170.657 410.545 199.849C360.383 271.453 310.255 343.009 264.83 417.439C203.764 517.576 129.943 590.34 4.0066 589.26C3.41844 589.187 2.84545 592.961 2.08923 597.941C1.6891 600.576 1.23765 603.549 0.705568 606.469C22.3339 610.184 43.9625 613.781 65.5807 617.376C119.91 626.412 174.174 635.437 228.203 646.292C348.464 670.28 439.19 629.58 506.218 528.547C532.417 489.064 559.31 450.004 586.206 410.939C629.047 348.715 671.898 286.476 711.974 222.488C771.183 128.011 843.242 59.9719 965.956 67.6358Z" fill="white" fill-opacity="0.8"/>
</svg>
