<svg width="78" height="45" viewBox="0 0 78 45" fill="none" xmlns="http://www.w3.org/2000/svg">
<path d="M25.6081 38.9374C31.7366 38.4239 34.7884 34.5131 37.006 29.3809C39.4468 23.7273 42.2858 18.2502 44.8732 12.6656C47.426 7.15434 51.6022 4.46727 57.7225 4.77808C61.5672 4.97869 65.4076 4.99826 69.2588 5.09003C69.2461 5.52051 69.2701 5.96825 69.2248 5.9693C62.996 6.83835 59.8955 10.9948 57.6304 16.4179C55.2579 22.0925 52.3823 27.5524 49.7082 33.1073C47.3497 38.0163 43.3742 40.3727 37.9745 40.2897C36.9325 40.2686 36.2758 40.2612 35.8318 40.2534C33.1094 40.2124 30.4097 39.9807 27.7182 39.5179C26.5179 39.3103 25.6393 39.1088 25.6216 38.9326L25.6081 38.9374Z" fill="#241B6D" fill-opacity="0.7"/>
<path d="M7.60813 38.9374C13.7366 38.4239 16.7884 34.5131 19.006 29.3809C21.4468 23.7273 24.2858 18.2502 26.8732 12.6656C29.426 7.15434 33.6022 4.46727 39.7225 4.77808C43.5672 4.97869 47.4076 4.99826 51.2588 5.09003C51.2461 5.52051 51.2701 5.96825 51.2248 5.9693C44.996 6.83835 41.8955 10.9948 39.6304 16.4179C37.2579 22.0925 34.3823 27.5524 31.7082 33.1073C29.3497 38.0163 25.3742 40.3727 19.9745 40.2897C18.9325 40.2686 18.2758 40.2612 17.8318 40.2534C15.1094 40.2124 12.4097 39.9807 9.71819 39.5179C8.51791 39.3103 7.63928 39.1088 7.6216 38.9326L7.60813 38.9374Z" fill="#241B6D" fill-opacity="0.4"/>
</svg>
