<svg width="45" height="37" viewBox="0 0 45 37" fill="none" xmlns="http://www.w3.org/2000/svg">
<path d="M0.608132 34.9364C6.73656 34.4229 9.78845 30.5121 12.006 25.3799C14.4468 19.7264 17.2858 14.2492 19.8732 8.66465C22.426 3.15336 26.6022 0.466292 32.7225 0.777108C36.5672 0.977711 40.4076 0.997279 44.2588 1.08905C44.2461 1.51953 44.2701 1.96727 44.2248 1.96832C37.996 2.83738 34.8955 6.99383 32.6304 12.4169C30.2579 18.0916 27.3823 23.5515 24.7082 29.1063C22.3497 34.0154 18.3742 36.3717 12.9745 36.2887C11.9325 36.2676 11.2758 36.2602 10.8318 36.2524C8.10938 36.2114 5.40967 35.9797 2.71819 35.5169C1.51791 35.3093 0.639278 35.1078 0.621605 34.9316L0.608132 34.9364Z" fill="#241B6D" fill-opacity="0.7"/>
</svg>
