<svg width="46" height="23" viewBox="0 0 46 23" fill="none" xmlns="http://www.w3.org/2000/svg">
<path d="M12.9153 7.8653C13.1312 7.94186 13.2747 8.01704 13.3457 8.09085C13.4347 8.15086 13.4709 8.24433 13.4544 8.37125C13.4441 8.45058 13.4268 8.52094 13.4027 8.58234L13.0944 9.46186C12.6309 10.7891 12.2643 11.8062 11.9946 12.5133C11.727 13.2045 11.4187 13.8984 11.0697 14.5952C10.6061 15.5513 10.1537 16.299 9.71221 16.8385C8.94726 17.7553 8.2316 18.1702 7.56524 18.0833C7.13686 18.0275 6.85092 17.6836 6.70741 17.0518C6.56598 16.404 6.49144 15.4907 6.4838 14.3119C6.47964 13.9725 6.51168 13.1699 6.57992 11.9041C6.09986 12.9871 5.68946 13.8452 5.34872 14.4785C5.02385 15.1138 4.66069 15.6715 4.25924 16.1517C3.51222 17.0547 2.78966 17.4607 2.09157 17.3696C1.64733 17.3117 1.34656 16.9578 1.18925 16.3081C1.04988 15.6445 0.982242 14.7401 0.98633 13.595C0.984913 12.7397 1.02626 11.8657 1.11038 10.9731C1.19657 10.0646 1.31447 8.97468 1.46411 7.70336L1.54479 7.0846C1.57375 6.86248 1.62617 6.70796 1.70204 6.62104C1.79378 6.53619 1.99555 6.47375 2.30734 6.43373C2.6012 6.4075 2.77193 6.39749 2.81952 6.4037C2.91472 6.41611 2.97301 6.46405 2.9944 6.54752C3.03372 6.61719 3.04304 6.73135 3.02235 6.89001L2.90443 7.79435C2.66653 9.61891 2.48933 11.411 2.37283 13.1707C2.27219 14.9325 2.34087 15.8289 2.57886 15.86C2.72165 15.8786 2.93479 15.7289 3.21829 15.4109C3.50385 15.077 3.8108 14.641 4.13912 14.1029C4.65989 13.2027 5.34481 11.8479 6.19389 10.0385L6.48875 9.44766C6.59911 9.22002 6.70016 9.06378 6.7919 8.97893C6.89951 8.89614 7.07644 8.83854 7.3227 8.80611C7.42203 8.78679 7.53516 8.7854 7.66209 8.80195C7.78901 8.8185 7.86421 8.86058 7.88766 8.92818C7.91112 8.99578 7.91457 9.09304 7.89802 9.21996C7.88354 9.33102 7.87906 9.42725 7.88458 9.50865C7.80601 10.8538 7.75087 11.8954 7.71917 12.6335C7.68747 13.3716 7.6882 14.1704 7.72134 15.0299C7.73587 16.0322 7.84627 16.5468 8.05252 16.5737C8.19531 16.5923 8.37259 16.4702 8.58435 16.2074C8.81404 15.9307 9.03304 15.6124 9.24135 15.2523C9.62002 14.5756 9.98041 13.7916 10.3225 12.9003C10.6826 11.9953 11.1074 10.8405 11.5971 9.43606L12.0658 8.06918C12.1444 7.8374 12.3027 7.73702 12.5407 7.76806L12.9153 7.8653ZM18.7003 8.42598C19.5232 8.54942 20.1262 8.99915 20.509 9.77517C20.9098 10.5374 21.052 11.4272 20.9355 12.4447C20.7596 13.7933 20.4327 15.0012 19.9547 16.0683C19.4788 17.1196 18.8642 17.935 18.111 18.5145C17.3598 19.0781 16.5003 19.2968 15.5325 19.1706C14.7095 19.0471 14.0976 18.6043 13.6968 17.8421C13.314 17.0661 13.1808 16.1693 13.2973 15.1519C13.4732 13.8033 13.799 12.6033 14.275 11.552C14.753 10.4849 15.3675 9.66951 16.1187 9.1059C16.872 8.52643 17.7325 8.29979 18.7003 8.42598ZM15.8283 17.8296C16.5423 17.9227 17.1559 17.6719 17.6691 17.0773C18.1981 16.4847 18.6058 15.7714 18.892 14.9374C19.1962 14.0896 19.3948 13.3088 19.4879 12.5948C19.5913 11.8015 19.5541 11.1593 19.3761 10.6682C19.2001 10.1612 18.8742 9.87664 18.3982 9.81458C17.6843 9.72149 17.0628 9.97123 16.5337 10.5638C16.0226 11.1426 15.616 11.8479 15.3139 12.6798C15.0276 13.5138 14.838 14.2878 14.7449 15.0018C14.6414 15.795 14.6766 16.4531 14.8505 16.976C15.0264 17.483 15.3524 17.7675 15.8283 17.8296ZM22.9717 19.1725C22.8827 19.4836 22.7923 19.6815 22.7006 19.7664C22.6268 19.8374 22.4837 19.8833 22.2712 19.904C21.9456 19.9261 21.7511 19.933 21.6876 19.9247C21.5607 19.9082 21.4786 19.8572 21.4414 19.7716C21.4179 19.704 21.4345 19.5771 21.491 19.3908C22.0841 17.1931 22.5693 15.3282 22.9466 13.7961C23.3239 12.264 23.5808 10.9744 23.7173 9.92726C23.7587 9.60994 23.8163 9.41576 23.8901 9.34471C23.9818 9.25986 24.1498 9.20915 24.394 9.19258C24.783 9.17877 24.9934 9.17393 25.0251 9.17807C25.1679 9.19668 25.258 9.24876 25.2952 9.3343C25.3345 9.40397 25.3328 9.54089 25.2901 9.74508L25.0211 11.0654C26.0033 9.96716 27.0418 9.48943 28.1365 9.63217C28.3428 9.65906 28.4815 9.70941 28.5525 9.78322C28.6256 9.84116 28.6498 9.96532 28.625 10.1557C28.6063 10.2985 28.5829 10.4165 28.5546 10.5096C28.4856 10.791 28.3974 10.9731 28.2897 11.0559C28.2001 11.1249 28.0262 11.1587 27.7683 11.1574C26.9308 11.145 26.191 11.4358 25.5488 12.0297C24.9087 12.6078 24.4083 13.5994 24.0476 15.0046L22.9717 19.1725ZM37.0437 4.62176C37.3058 4.5914 37.5241 4.5876 37.6987 4.61035C37.8415 4.62897 37.9315 4.68105 37.9687 4.76658C38.0081 4.83625 38.0074 4.96524 37.9667 5.15356C36.939 8.82753 36.1893 11.5454 35.7176 13.3072C35.2479 15.0531 34.891 16.4911 34.6468 17.621C34.3317 19.0482 34.1255 20.1347 34.0282 20.8803C33.9993 21.1025 33.942 21.2322 33.8565 21.2694C33.7868 21.3087 33.6288 21.3446 33.3826 21.377C33.1881 21.3839 33.067 21.3843 33.0194 21.3781C32.829 21.3533 32.7104 21.2733 32.6634 21.1381C32.6165 21.0029 32.6227 20.7697 32.682 20.4386C32.7193 20.153 32.7907 19.7912 32.8962 19.3532C32.512 19.9485 32.0502 20.3965 31.5108 20.6973C30.9872 21.0002 30.416 21.1113 29.7973 21.0306C29.0378 20.9154 28.4756 20.4629 28.1106 19.6731C27.7616 18.8854 27.6708 17.8489 27.8384 16.5638C28.0094 15.3759 28.3287 14.2881 28.7964 13.3003C29.2661 12.2966 29.8586 11.5267 30.5739 10.9907C31.3072 10.4409 32.1259 10.225 33.0303 10.3429C33.6808 10.4277 34.2975 10.7098 34.8804 11.1892C35.4515 9.03696 35.9549 7.09374 36.3908 5.35954C36.4619 5.06223 36.5353 4.87012 36.6112 4.7832C36.7029 4.69835 36.8471 4.64453 37.0437 4.62176ZM34.5431 12.4764C34.2665 12.2467 34.0064 12.0756 33.7629 11.9632C33.5374 11.837 33.2739 11.7542 32.9724 11.7149C32.2426 11.6197 31.6152 11.8526 31.0903 12.4134C30.5654 12.9743 30.1539 13.6548 29.856 14.455C29.5739 15.2572 29.3794 16.0064 29.2725 16.7024C29.0305 18.5587 29.4092 19.552 30.4087 19.6823C31.0592 19.7671 31.7052 19.3915 32.3467 18.5554C32.9882 17.7193 33.462 16.6839 33.7683 15.4491L34.5431 12.4764ZM41.4101 16.4214C41.1446 16.7256 40.9246 17.0519 40.75 17.4002C40.5776 17.7327 40.4297 17.9393 40.3062 18.0201C40.1986 18.1028 39.984 18.1394 39.6626 18.1298C39.3232 18.1339 39.1721 17.9932 39.2094 17.7076L39.258 17.5203C39.4235 16.9933 39.688 16.5115 40.0516 16.0748C40.4151 15.6381 40.931 15.0842 41.5994 14.413C42.3195 13.7162 42.8634 13.1337 43.2311 12.6653C43.6008 12.181 43.8219 11.6612 43.8943 11.1059C43.9646 10.5665 43.8728 10.0947 43.619 9.69046C43.381 9.28831 42.9288 9.04379 42.2624 8.95691C41.1677 8.81416 40.2516 9.40468 39.5143 10.7285C39.4302 10.8788 39.3522 10.9816 39.2805 11.0368C39.2087 11.092 39.1173 11.1124 39.0063 11.0979C38.8793 11.0813 38.7328 11.0299 38.5665 10.9437C38.4003 10.8575 38.2816 10.7775 38.2106 10.7037C38.1395 10.6299 38.1102 10.5454 38.1226 10.4502C38.135 10.355 38.1743 10.2391 38.2405 10.1025C39.2607 8.2186 40.6989 7.39766 42.5552 7.6397C43.5844 7.79004 44.3225 8.19285 44.7695 8.84815C45.2186 9.48758 45.3984 10.2129 45.3087 11.0241C45.2053 11.8174 44.9277 12.5234 44.4759 13.1422C44.0241 13.761 43.4012 14.4543 42.6073 15.2221C42.0906 15.7195 41.6916 16.1192 41.4101 16.4214ZM38.3941 19.8764C38.6576 19.5881 38.9639 19.4666 39.3129 19.5122C39.5668 19.5453 39.7527 19.6663 39.8706 19.8753C40.0066 20.0705 40.0538 20.3268 40.0124 20.6441C39.9545 21.0883 39.7938 21.4546 39.5303 21.743C39.2668 22.0313 38.9605 22.1528 38.6115 22.1072C38.3577 22.0741 38.1628 21.96 38.0269 21.7648C37.9089 21.5558 37.8706 21.2926 37.912 20.9753C37.9699 20.5311 38.1306 20.1648 38.3941 19.8764Z" fill="#FF5E5E"/>
</svg>
