<svg width="81" height="35" viewBox="0 0 81 35" fill="none" xmlns="http://www.w3.org/2000/svg">
<path d="M79.0226 14.7426C79.1681 16.6977 78.3693 18.7201 76.6143 20.7326C74.8558 22.749 72.1876 24.6917 68.7605 26.4329C61.9107 29.9132 52.2125 32.496 41.2963 33.3083C30.3802 34.1207 20.4065 33.0018 13.117 30.5736C9.46999 29.3588 6.54355 27.8325 4.50606 26.0986C2.47243 24.3681 1.38316 22.4862 1.23766 20.531C1.09217 18.5759 1.8909 16.5535 3.64599 14.541C5.4044 12.5247 8.0727 10.582 11.4997 8.84077C18.3496 5.36044 28.0477 2.77767 38.9639 1.96533C49.8801 1.15299 59.8537 2.27187 67.1433 4.7C70.7903 5.9148 73.7167 7.44115 75.7542 9.17501C77.7878 10.9056 78.8771 12.7875 79.0226 14.7426Z" stroke="#FF5E5E" stroke-width="2"/>
</svg>
